<?xml version="1.0" encoding="utf-8"?>
<!-- Generator: Adobe Illustrator 25.2.1, SVG Export Plug-In . SVG Version: 6.00 Build 0)  -->
<svg version="1.1" id="Layer_1" xmlns="http://www.w3.org/2000/svg" xmlns:xlink="http://www.w3.org/1999/xlink" x="0px" y="0px"
	 viewBox="0 0 1440 967" style="enable-background:new 0 0 1440 967;" xml:space="preserve">
<style type="text/css">
	.st0{fill:#192F66;}
	.st1{fill:#203E7A;}
</style>
<path class="st0" d="M1479.3,547.9l28-0.1l0.3,130.1l0.2,72.4l0.4,155.7c-31.4,9.6-63.9,18-94.7,24.9c-129,29-289.8-0.1-437.2,6.6
	c-101.5,4.6-192.4,32.1-293.6,26.4c-101.2-5.7-166.2-47-264.8-57.8c-70-7.7-155.9-4-239.7-0.5c-28.3,1.2-56.4,2.4-83.6,3.1
	C-8,911.6-97.2,908-136,874.3c-40.7-35.3,17.9-66.1,98.3-96.1l-0.1-46.3h-28.5V100.1c31.4-16.8,64-31.5,94.8-43.6
	c129.1-50.6,289.8,1.4,437.2-9.7c96-7.2,182.6-50.7,277.4-46.5c5.4,0.2,10.9,0.6,16.3,1.2c22,2.3,42.2,7.5,61.5,14.5
	c69.5,25.2,126,73.4,203.2,88.6c31.2,6.2,65.6,8.4,101.5,8.4c23,0,46.7-0.8,70.6-2.1c157.4-8.5,324.6-35.5,381.6,52.3
	c40.6,62.5-18.1,116.6-98.5,169.2V547.9z"/>
<path class="st1" d="M1479.3,388.3v70.8c-0.2,0-0.3-0.1-0.5-0.1c-79.2-16.4-152.4-53.8-212.9-107.4
	c-60.2-53.3-105-122.9-129.6-199.4c-4.2-12.9-7.7-26-10.7-39.2c23,0,46.7-0.8,70.6-2.1c4.7,18.2,10.7,36.1,17.8,53.5
	c13,29.7,29.4,57.7,48.9,83.6c20.8,26.2,44.5,49.9,70.7,70.6c26.7,20.1,55.6,37.1,86.2,50.5C1439.1,377,1459,383.3,1479.3,388.3z"/>
<path class="st1" d="M820.9,16c-13.1,14.5-26,29.3-38.5,44.3c-7.6,9.1-15.1,18.4-22.5,27.7c-2.2,2.7-4.3,5.5-6.5,8.2
	c-0.4,0.5-0.7,0.9-1.1,1.4c-3.2,4.2-6.4,8.3-9.6,12.5c-29,38.3-56.8,77.4-86.8,115c-28.3,35.4-58.7,69.4-93.6,98.4
	c-38.7,32-80.9,57-127.1,76.4c-88,37-185.3,49.6-280.3,47.4c-74.3-1.7-148-12-221.2-25v-69.9c32.3,5.9,64.6,11.3,97.1,15.8
	c79.8,10.4,160.7,14.6,240.7,4.4c35.2-5,69.9-12.7,103.7-23.7c8.3-2.7,16.6-5.6,24.8-8.8c4.1-1.6,8.1-3.2,12.1-4.8
	c0.7-0.3,1.4-0.6,2-0.9c1.8-0.8,3.7-1.6,5.5-2.5c16.5-7.5,32.6-15.9,48.1-25.3c6.9-4.2,13.7-8.5,20.4-13.1c3.3-2.3,6.7-4.6,9.9-7
	c1.6-1.2,7.3-5.9,7.6-6c-0.1,0.1-0.5,0.5-1.5,1.4c11.7-10,23.7-19.5,34.8-30.1c23.4-22.3,44.7-46.6,64.9-71.7
	c3-3.7,5.9-7.4,8.8-11.1c1.1-1.4,5.2-6.9,5.8-7.6c-0.1,0.1-0.4,0.5-0.8,1.1c4.3-5.8,8.8-11.4,13.1-17.2c9.8-13,19.5-26.1,29.1-39.2
	c20.9-28.2,42-56.3,64.2-83.5c6.2-7.6,12.4-15.1,18.8-22.5c5.4,0.2,10.9,0.6,16.3,1.2C781.4,3.8,801.6,9,820.9,16z"/>
<g>
	<path class="st1" d="M1507.8,750.4c-11.3,3.4-22.7,6.5-34.1,9.2c-143.9,34.3-293.1,13.7-436.3-14.1c-73.9-14.3-147.4-31-221.7-43.3
		c-9.4-1.5-18.8-3-28.3-4.4c-4.2-0.6-8.4-1.2-12.6-1.8c-1.2-0.2-2.4-0.3-3.6-0.5c-0.9-0.1-3.6-0.5-4.5-0.6
		c-18.4-2.4-36.8-4.4-55.2-6c-36.1-3.1-72.4-4.5-108.7-3.4c-18.3,0.5-36.5,1.7-54.7,3.6c-4.4,0.5-8.8,1-13.2,1.5
		c-0.2,0.1-7.4,1-8.7,1.2c-8.2,1.3-16.5,2.7-24.6,4.3c-32.5,6.3-64.5,15.3-95.3,27.5c-1.9,0.8-3.8,1.5-5.8,2.3c0,0,0.1,0,0.1-0.1
		c-0.1,0-0.1,0.1-0.2,0.1c-0.4,0.1-0.7,0.3-1.1,0.4c-0.7,0.3-1.4,0.7-1.9,1c-1.9,0.8-3.9,1.5-5.8,2.3c-6.4,2.9-12.7,5.9-19,9
		c-12.9,6.4-25.6,13.4-37.9,20.9c-12,7.3-23.7,15-35.2,23.2c-3.4,2.4-6.7,4.8-10,7.3c-0.7,0.5-1.5,1-2.2,1.6
		c-0.2,0.2-0.4,0.4-0.6,0.6c-5.8,4.6-11.6,9.3-17.3,14.1c-21.7,18.5-42,38.6-60.7,60.1c-4.9,5.6-9.6,11.3-14.3,17.1
		c-1,1.3-2,2.6-3.1,3.9c0,0.1-0.1,0.1-0.1,0.2c-1.9,2.5-3.8,5.1-5.7,7.6c-2.5,3.4-5,6.9-7.4,10.4c-28.3,1.2-56.4,2.4-83.6,3.1
		C134.8,840.3,189,780.3,252.9,732c47.5-35.9,100.9-63.8,157.2-83.1c69.2-23.6,143.3-32.8,216.2-32.9
		c152.7-0.2,301.5,38.9,450.6,66.9c18.3,3.5,36.7,6.7,55.2,9.7c9.7,1.6,19.5,3.1,29.2,4.5c2.7,0.4,5.4,0.8,8.1,1.2
		c0.4,0.1,2.2,0.3,3.4,0.5c1.3,0.2,3.2,0.4,3.6,0.5c2.7,0.3,5.4,0.7,8.1,1c37.3,4.6,74.9,7.6,112.5,8.2c34.8,0.6,69.5-1.1,104-5.2
		c1.7-0.2,3.3-0.5,5-0.7c3.7-0.6,7.4-1.2,11.1-1.8c7-1.2,14-2.5,21-4c13.9-2.9,27.8-6.3,41.5-10.2c9.4-2.7,18.7-5.6,27.9-8.7
		L1507.8,750.4z"/>
	<path class="st1" d="M1699.9,546.2c-0.7,1-1.3,2.1-1.8,3.2C1699.1,547.4,1699.7,546.5,1699.9,546.2z"/>
	<path class="st1" d="M397.5,727.3c-0.9,0.6-0.8,0.8,3.1-1.5c0,0,0,0-0.1,0C399.6,726.4,398.6,726.9,397.5,727.3z"/>
</g>
</svg>
