<svg width="1440" height="967" viewBox="0 0 1440 967" fill="none" xmlns="http://www.w3.org/2000/svg">
<path d="M465.68 46.7927C567.166 39.1542 658.161 -8.99139 759.388 1.48413C860.582 11.9562 925.467 85.0962 1024.06 104.576C1207.09 140.739 1498.59 41.296 1577.79 163.182C1618.4 225.675 1559.68 279.763 1479.27 332.332V731.904H-66.2825V100.085C-34.846 83.298 -2.30568 68.5729 28.4802 56.4968C157.572 5.85961 318.295 57.8857 465.68 46.7927Z" fill="#192F66"/>
<path d="M976.302 937.553C874.828 942.137 783.903 969.655 682.661 963.97C581.452 958.286 516.462 916.987 417.843 906.191C234.76 886.149 -56.5938 943.246 -135.971 874.352C-176.668 839.028 -118.033 808.222 -37.6975 778.222L-38.2729 551.721L1507.28 547.864L1508.19 906.016C1476.77 915.61 1444.26 924.039 1413.49 930.961C1284.47 959.988 1123.67 930.897 976.302 937.553Z" fill="#192F66"/>
</svg>
